<svg width="543" height="199" viewBox="0 0 543 199" fill="none" xmlns="http://www.w3.org/2000/svg">
<path d="M273.658 34.9758V24.1308C273.658 18.5831 271.694 15.7555 267.881 15.7555C264.067 15.7555 262.103 18.4668 262.103 24.1308V45.2033H283.5V54.5719H262.103V92.5202H251.654V24.1308C251.654 13.2859 257.432 6.26173 267.89 6.26173C278.347 6.26173 284.125 13.2859 284.125 24.1308V34.9758H273.667H273.658ZM290.019 7.25496H300.467V92.5202H290.019V7.25496Z" fill="#030E51"/>
<path d="M325.19 93.5029C314.617 93.5029 308.214 87.2214 308.214 76.2512V45.327C308.214 34.3568 314.608 28.0753 325.19 28.0753C335.773 28.0753 342.158 34.3568 342.158 45.327V76.2602C342.158 87.2304 335.764 93.5119 325.19 93.5119V93.5029ZM331.709 45.9444C331.709 40.2804 329.129 37.5691 325.19 37.5691C321.252 37.5691 318.671 40.2804 318.671 45.9444V75.6428C318.671 81.3068 321.252 84.0181 325.19 84.0181C329.129 84.0181 331.709 81.3068 331.709 75.6428V45.9444Z" fill="#030E51"/>
<path d="M371.921 55.0624V45.9444C371.921 40.2804 369.957 37.5691 366.143 37.5691C362.33 37.5691 360.365 40.2804 360.365 45.9444V92.5186H349.908V29.0596H359.99V33.0057C361.098 30.1692 365.152 28.0753 368.724 28.0753C378.681 28.0753 382.379 34.2405 382.379 45.327V55.0624H371.921Z" fill="#030E51"/>
<path d="M388.283 7.25362H398.74V19.7002H388.283V7.25362ZM388.283 29.0688H398.74V92.5188H388.283V29.0598V29.0688Z" fill="#030E51"/>
<path d="M426.907 93.5029C423.344 93.5029 419.155 91.4091 418.048 88.5726V115.927H407.591V29.0596H417.673V33.2473C418.905 30.0439 423.085 28.0753 426.898 28.0753C436.855 28.0753 441.535 34.2405 441.535 45.327V76.2602C441.535 87.3467 436.864 93.5118 426.898 93.5118L426.907 93.5029ZM431.077 45.9444C431.077 40.2804 428.497 37.5691 424.558 37.5691C420.62 37.5691 418.039 40.2804 418.039 45.9444V75.6427C418.039 81.3068 420.62 84.018 424.558 84.018C428.497 84.018 431.077 81.3068 431.077 75.6427V45.9444Z" fill="#030E51"/>
<path d="M472.78 92.5186V88.3309C471.548 91.5343 467.369 93.5029 463.555 93.5029C453.598 93.5029 448.919 87.3377 448.919 76.2512V45.327C448.919 34.2405 453.589 28.0753 463.555 28.0753C467.369 28.0753 471.548 30.0439 472.78 33.2473V29.0596H482.863V92.5186H472.78ZM472.414 45.9444C472.414 40.2804 469.833 37.5691 465.895 37.5691C461.957 37.5691 459.376 40.2804 459.376 45.9444V75.6427C459.376 81.3068 461.957 84.018 465.895 84.018C469.833 84.018 472.414 81.3068 472.414 75.6427V45.9444Z" fill="#030E51"/>
<path d="M295.675 198.007V151.433C295.675 145.76 293.71 143.058 289.897 143.058C286.084 143.058 284.119 145.769 284.119 151.433V198.007H273.662V151.433C273.662 145.76 271.697 143.058 267.884 143.058C264.071 143.058 262.106 145.769 262.106 151.433V198.007H251.649V134.548H261.731V138.494C262.838 135.658 266.893 133.564 270.465 133.564C276.368 133.564 279.565 135.533 281.529 139.604C283.494 135.783 287.191 133.564 292.478 133.564C302.435 133.564 306.132 139.729 306.132 150.816V198.007H295.675Z" fill="#030E51"/>
<path d="M337.737 198.007V193.819C336.504 197.023 332.325 198.991 328.512 198.991C318.554 198.991 313.875 192.826 313.875 181.74V150.806C313.875 139.72 318.545 133.555 328.512 133.555C332.325 133.555 336.504 135.523 337.737 138.727V134.539H347.819V197.998H337.737V198.007ZM337.371 151.433C337.371 145.769 334.79 143.057 330.851 143.057C326.913 143.057 324.332 145.769 324.332 151.433V181.131C324.332 186.795 326.913 189.506 330.851 189.506C334.79 189.506 337.371 186.795 337.371 181.131V151.433Z" fill="#030E51"/>
<path d="M356.679 112.733H367.136V125.18H356.679V112.733ZM356.679 134.548H367.136V198.007H356.679V134.548Z" fill="#030E51"/>
<path d="M390.255 198.991C379.673 198.991 373.279 192.71 373.279 181.739V177.552H383.736V181.122C383.736 186.786 386.317 189.623 390.255 189.623C394.194 189.623 396.891 187.162 396.891 182.106C396.891 178.652 396.149 176.809 392.836 174.223L383.12 166.456C377.583 162.018 374.386 158.323 374.386 150.439C374.386 139.845 379.923 133.555 390.255 133.555C400.588 133.555 406.366 139.836 406.366 150.806V155.119H395.908V151.424C395.908 146.127 394.06 142.923 390.255 142.923C386.451 142.923 384.719 145.76 384.719 150.439C384.719 153.893 385.46 155.495 388.782 158.081L398.498 165.848C404.035 170.286 407.232 174.223 407.232 182.115C407.232 192.71 400.588 199 390.264 199" fill="#030E51"/>
<path d="M449.043 198.991C438.47 198.991 432.808 192.584 432.808 181.739V119.515H443.265V134.548H462.823V144.032H443.265V181.122C443.265 186.786 445.23 189.497 449.043 189.497C452.856 189.497 454.821 186.786 454.821 181.122V171.145H465.278V181.739C465.278 192.584 459.617 198.991 449.043 198.991Z" fill="#030E51"/>
<path d="M487.418 198.991C476.845 198.991 470.442 192.71 470.442 181.74V150.806C470.442 139.836 476.711 133.555 487.293 133.555C497.875 133.555 504.27 139.836 504.27 150.806V169.168H480.899V181.122C480.899 186.786 483.48 189.497 487.418 189.497C491.356 189.497 493.812 186.786 493.812 181.122V177.552H504.27V181.74C504.27 192.71 498 198.991 487.418 198.991ZM493.687 151.424C493.687 145.76 491.222 143.048 487.293 143.048C483.364 143.048 480.899 145.76 480.899 151.424V160.792H493.687V151.424Z" fill="#030E51"/>
<path d="M526.89 198.991C516.557 198.991 510.78 192.71 510.78 181.739V150.932C510.78 139.961 516.432 133.555 526.89 133.555C537.347 133.555 543 139.836 543 150.806V155.119H532.543V151.424C532.543 146.001 530.819 143.048 526.89 143.048C522.96 143.048 521.228 146.127 521.228 151.424V181.122C521.228 186.545 522.952 189.497 526.89 189.497C530.828 189.497 532.543 186.536 532.543 181.122V177.552H543V181.739C543 192.71 537.222 198.991 526.89 198.991Z" fill="#030E51"/>
<path d="M139.147 108.715C143.504 113.708 150.336 116.464 157.73 115.041C165.384 113.574 171.554 107.409 173.046 99.7493C175.484 87.1953 165.955 76.1982 153.864 76.1982C148.059 76.1982 142.853 78.7305 139.272 82.7571C135.387 87.1237 129.904 89.7186 124.063 89.7186H110.98C105.31 89.7186 99.7551 87.4458 96.0848 83.115C95.5847 82.5244 95.0489 81.9697 94.4863 81.4417C89.9229 77.2004 87.2528 71.3126 87.2528 65.0759V50.3297C87.2528 44.0929 89.9229 38.2052 94.4863 33.9638C94.8703 33.6059 95.2364 33.239 95.5936 32.8453C99.7462 28.3087 105.569 25.687 111.713 25.687H147.255C153.489 25.687 159.195 28.5771 163.481 33.1048C167.045 36.863 172.072 39.2073 177.663 39.2073C189.754 39.2073 199.283 28.2103 196.845 15.6652C195.354 8.00577 189.183 1.84062 181.53 0.37315C174.269 -1.02273 167.554 1.60797 163.187 6.42198C159.07 10.9586 153.23 13.5177 147.112 13.5177H111.731C105.613 13.5177 99.7641 10.9586 95.6561 6.42198C92.0662 2.48487 86.9045 0.00628341 81.1713 0.00628341C79.9121 0.00628341 78.6172 0.131555 77.3045 0.37315C69.6244 1.84956 63.4358 8.05051 61.9712 15.7458C60.5959 22.9668 63.1768 29.6599 67.9277 34.0354C72.491 38.232 75.0987 44.1377 75.0987 50.3386V65.3265C75.0987 71.5721 72.2142 77.3078 67.6955 81.6028C63.9448 85.173 61.6051 90.2107 61.6051 95.8122C61.6051 101.414 63.9448 106.451 67.6955 110.022C72.2142 114.317 75.0987 120.052 75.0987 126.298V143.299C75.0987 149.509 72.4821 155.415 67.9188 159.62C63.1768 163.996 60.5959 170.689 61.9712 177.91C63.4358 185.578 69.5887 191.761 77.233 193.256C89.7622 195.698 100.737 186.151 100.737 174.035C100.737 168.443 98.3977 163.396 94.647 159.826C90.1283 155.531 87.2438 149.795 87.2438 143.55V126.548C87.2438 120.303 89.9229 114.415 94.4863 110.165C94.9596 109.726 95.4061 109.261 95.8348 108.778C99.7462 104.34 105.435 101.897 111.338 101.897H123.688C129.573 101.897 135.28 104.286 139.147 108.724V108.715Z" fill="url(#paint0_linear_1615_717)"/>
<path d="M49.1289 152.739C53.2636 150.35 54.6835 145.044 52.2991 140.901C50.7006 138.118 47.7893 136.561 44.7977 136.561C43.3242 136.561 41.8418 136.937 40.4755 137.724C36.3407 140.113 34.9208 145.419 37.3141 149.562C39.6985 153.714 44.9942 155.128 49.1289 152.739Z" fill="url(#paint1_linear_1615_717)"/>
<path d="M21.0787 130.692C27.8032 126.799 30.0983 118.192 26.2225 111.463C23.6238 106.944 18.8997 104.421 14.0416 104.421C11.6572 104.421 9.24607 105.029 7.03137 106.309C0.306873 110.201 -1.99714 118.809 1.88753 125.538C5.7722 132.276 14.3631 134.575 21.0787 130.692Z" fill="url(#paint2_linear_1615_717)"/>
<path d="M127.439 82.1759C134.351 78.1761 136.726 69.3176 132.735 62.383C130.056 57.739 125.197 55.144 120.196 55.144C117.741 55.144 115.258 55.7704 112.981 57.0858C106.069 61.0855 103.693 69.944 107.685 76.8787C111.677 83.8044 120.518 86.1846 127.439 82.1848V82.1759Z" fill="url(#paint3_linear_1615_717)"/>
<path d="M44.7985 96.8231C43.9144 96.8231 43.0124 97.0468 42.1908 97.521C39.6903 98.9706 38.833 102.174 40.2797 104.688C41.7264 107.194 44.9235 108.053 47.424 106.603C49.9244 105.154 50.7817 101.95 49.335 99.4359C48.3706 97.7537 46.6024 96.8141 44.7985 96.8141V96.8231Z" fill="url(#paint4_linear_1615_717)"/>
<path d="M52.0679 51.6099C50.4694 48.836 47.5582 47.2791 44.5665 47.2791C43.093 47.2791 41.6106 47.6549 40.2443 48.4423C36.1095 50.8314 34.6896 56.1375 37.074 60.2804C39.4673 64.4323 44.7541 65.8461 48.8888 63.457C53.0235 61.0589 54.4434 55.7617 52.059 51.6099H52.0679Z" fill="url(#paint5_linear_1615_717)"/>
<path d="M149.129 44.1555C148.245 44.1555 147.343 44.3792 146.521 44.8534C144.021 46.303 143.164 49.5064 144.601 52.0208C146.048 54.5262 149.245 55.3852 151.755 53.9356C154.255 52.4861 155.112 49.2827 153.675 46.7683C152.701 45.0861 150.942 44.1466 149.138 44.1466L149.129 44.1555Z" fill="url(#paint6_linear_1615_717)"/>
<path d="M122.938 144.069C127.073 141.67 128.492 136.373 126.108 132.23C124.51 129.448 121.598 127.9 118.607 127.9C117.142 127.9 115.651 128.275 114.284 129.063C110.15 131.452 108.73 136.758 111.114 140.901C113.507 145.044 118.794 146.467 122.929 144.069H122.938Z" fill="url(#paint7_linear_1615_717)"/>
<path d="M188.557 76.2699C187.092 76.2699 185.601 76.6457 184.235 77.4332C180.1 79.8312 178.68 85.1284 181.065 89.2713C183.458 93.4142 188.745 94.837 192.879 92.4389C197.014 90.0498 198.434 84.7437 196.05 80.6007C194.451 77.8179 191.54 76.261 188.548 76.261L188.557 76.2699Z" fill="url(#paint8_linear_1615_717)"/>
<path d="M121.508 169.079C120.535 169.079 119.544 169.329 118.633 169.857C115.873 171.45 114.936 174.975 116.525 177.74C118.115 180.505 121.634 181.445 124.393 179.852C127.143 178.259 128.09 174.734 126.501 171.969C125.438 170.117 123.5 169.088 121.508 169.088V169.079Z" fill="url(#paint9_linear_1615_717)"/>
<path d="M163.017 136.561C161.552 136.561 160.061 136.937 158.695 137.724C154.56 140.122 153.14 145.419 155.524 149.562C157.918 153.714 163.204 155.128 167.339 152.739C171.474 150.341 172.894 145.044 170.509 140.901C168.902 138.118 166 136.57 163.008 136.57L163.017 136.561Z" fill="url(#paint10_linear_1615_717)"/>
<defs>
<linearGradient id="paint0_linear_1615_717" x1="54.5591" y1="96.8233" x2="217.51" y2="96.8233" gradientUnits="userSpaceOnUse">
<stop stop-color="#01D0DD"/>
<stop offset="0.03" stop-color="#03CDDD"/>
<stop offset="0.44" stop-color="#27AAE2"/>
<stop offset="0.78" stop-color="#3D94E4"/>
<stop offset="1" stop-color="#458DE6"/>
</linearGradient>
<linearGradient id="paint1_linear_1615_717" x1="36.305" y1="145.231" x2="56.1302" y2="145.231" gradientUnits="userSpaceOnUse">
<stop stop-color="#9744E0"/>
<stop offset="0.27" stop-color="#AF5EE8"/>
<stop offset="0.75" stop-color="#D88AF5"/>
<stop offset="0.99" stop-color="#E89BFB"/>
<stop offset="1" stop-color="#E89BFB"/>
</linearGradient>
<linearGradient id="paint2_linear_1615_717" x1="0.244361" y1="118.505" x2="32.4469" y2="118.505" gradientUnits="userSpaceOnUse">
<stop stop-color="#9744E0"/>
<stop offset="0.27" stop-color="#AF5EE8"/>
<stop offset="0.75" stop-color="#D88AF5"/>
<stop offset="0.99" stop-color="#E89BFB"/>
<stop offset="1" stop-color="#E89BFB"/>
</linearGradient>
<linearGradient id="paint3_linear_1615_717" x1="106.006" y1="69.6308" x2="139.138" y2="69.6308" gradientUnits="userSpaceOnUse">
<stop stop-color="#9744E0"/>
<stop offset="0.27" stop-color="#AF5EE8"/>
<stop offset="0.75" stop-color="#D88AF5"/>
<stop offset="0.99" stop-color="#E89BFB"/>
<stop offset="1" stop-color="#E89BFB"/>
</linearGradient>
<linearGradient id="paint4_linear_1615_717" x1="39.6636" y1="102.067" x2="51.6569" y2="102.067" gradientUnits="userSpaceOnUse">
<stop stop-color="#9744E0"/>
<stop offset="0.27" stop-color="#AF5EE8"/>
<stop offset="0.75" stop-color="#D88AF5"/>
<stop offset="0.99" stop-color="#E89BFB"/>
<stop offset="1" stop-color="#E89BFB"/>
</linearGradient>
<linearGradient id="paint5_linear_1615_717" x1="36.0738" y1="55.9496" x2="55.899" y2="55.9496" gradientUnits="userSpaceOnUse">
<stop stop-color="#9744E0"/>
<stop offset="0.27" stop-color="#AF5EE8"/>
<stop offset="0.75" stop-color="#D88AF5"/>
<stop offset="0.99" stop-color="#E89BFB"/>
<stop offset="1" stop-color="#E89BFB"/>
</linearGradient>
<linearGradient id="paint6_linear_1615_717" x1="143.994" y1="49.399" x2="155.979" y2="49.399" gradientUnits="userSpaceOnUse">
<stop stop-color="#9744E0"/>
<stop offset="0.27" stop-color="#AF5EE8"/>
<stop offset="0.75" stop-color="#D88AF5"/>
<stop offset="0.99" stop-color="#E89BFB"/>
<stop offset="1" stop-color="#E89BFB"/>
</linearGradient>
<linearGradient id="paint7_linear_1615_717" x1="110.114" y1="136.561" x2="129.939" y2="136.561" gradientUnits="userSpaceOnUse">
<stop stop-color="#9744E0"/>
<stop offset="0.27" stop-color="#AF5EE8"/>
<stop offset="0.75" stop-color="#D88AF5"/>
<stop offset="0.99" stop-color="#E89BFB"/>
<stop offset="1" stop-color="#E89BFB"/>
</linearGradient>
<linearGradient id="paint8_linear_1615_717" x1="180.064" y1="84.9405" x2="199.89" y2="84.9405" gradientUnits="userSpaceOnUse">
<stop stop-color="#9744E0"/>
<stop offset="0.27" stop-color="#AF5EE8"/>
<stop offset="0.75" stop-color="#D88AF5"/>
<stop offset="0.99" stop-color="#E89BFB"/>
<stop offset="1" stop-color="#E89BFB"/>
</linearGradient>
<linearGradient id="paint9_linear_1615_717" x1="115.847" y1="174.85" x2="129.046" y2="174.85" gradientUnits="userSpaceOnUse">
<stop stop-color="#9744E0"/>
<stop offset="0.27" stop-color="#AF5EE8"/>
<stop offset="0.75" stop-color="#D88AF5"/>
<stop offset="0.99" stop-color="#E89BFB"/>
<stop offset="1" stop-color="#E89BFB"/>
</linearGradient>
<linearGradient id="paint10_linear_1615_717" x1="154.515" y1="145.231" x2="174.34" y2="145.231" gradientUnits="userSpaceOnUse">
<stop stop-color="#9744E0"/>
<stop offset="0.27" stop-color="#AF5EE8"/>
<stop offset="0.75" stop-color="#D88AF5"/>
<stop offset="0.99" stop-color="#E89BFB"/>
<stop offset="1" stop-color="#E89BFB"/>
</linearGradient>
</defs>
</svg>
